<?xml version="1.0" encoding="UTF-8" standalone="no"?>
<svg width="38px" height="38px" viewBox="0 0 38 38" version="1.1" xmlns="http://www.w3.org/2000/svg" xmlns:xlink="http://www.w3.org/1999/xlink">
    <!-- Generator: Sketch 43.1 (39012) - http://www.bohemiancoding.com/sketch -->
    <title>icon_9</title>
    <desc>Created with Sketch.</desc>
    <defs></defs>
    <g id="Symbols" stroke="none" stroke-width="1" fill="none" fill-rule="evenodd">
        <g id="icon_9">
            <polygon id="Path-668" fill="#65A5BD" points="22 13.9548872 22 15.0451128 27.6521739 15.0451128 27.6521739 17 32.3189963 14.5278834 27.6521739 12 27.6521739 13.9548872"></polygon>
            <path d="M18.4497475,14.4497475 L15.4497475,14.4497475 L15.4497475,15.4497475 L18.4497475,15.4497475 L18.4497475,18.4497475 L19.4497475,18.4497475 L19.4497475,15.4497475 L22.4497475,15.4497475 L22.4497475,14.4497475 L19.4497475,14.4497475 L19.4497475,11.4497475 L18.4497475,11.4497475 L18.4497475,14.4497475 Z" id="Combined-Shape" fill="#EEEEEE" transform="translate(18.949747, 14.949747) rotate(45.000000) translate(-18.949747, -14.949747) "></path>
            <rect id="Rectangle-84" fill="#EEEEEE" x="5" y="17" width="1" height="8"></rect>
            <rect id="Rectangle-84-Copy" fill="#EEEEEE" x="32" y="17" width="1" height="8"></rect>
            <rect id="Rectangle-86" fill="#EEEEEE" x="5" y="24" width="28" height="1"></rect>
            <polygon id="Path-668" fill="#65A5BD" points="15.8189963 15.0451128 10.1668224 15.0451128 10.1668224 17 5.5 14.5278834 10.1668224 12 10.1668224 13.9548872 15.8189963 13.9548872"></polygon>
        </g>
    </g>
</svg>