<?xml version="1.0" encoding="UTF-8" standalone="no"?>
<svg width="38px" height="38px" viewBox="0 0 38 38" version="1.1" xmlns="http://www.w3.org/2000/svg" xmlns:xlink="http://www.w3.org/1999/xlink">
    <!-- Generator: Sketch 43.1 (39012) - http://www.bohemiancoding.com/sketch -->
    <title>icon ._tool ._roi_pen</title>
    <desc>Created with Sketch.</desc>
    <defs></defs>
    <g id="Symbols" stroke="none" stroke-width="1" fill="none" fill-rule="evenodd">
        <g id="icon-._tool-._roi_pen">
            <g>
                <rect id="Rectangle-8" fill-opacity="0" fill="#FFFFFF" x="0" y="0" width="38" height="38"></rect>
                <path d="M24.0025327,11.6632269 L22.7223754,13.8516462 C22.2765671,13.3010555 21.5741218,12.632028 20.4699438,11.9244904 C19.3654704,11.2167636 18.2553623,10.9337166 17.3164091,10.8502713 L18.5306771,8.84121345 C19.5582312,8.86352458 20.7944334,9.13091786 22.0348588,9.97242124 C22.9746319,10.6099624 23.5945134,11.1800623 24.0025327,11.6632269 Z M24.485342,10.837868 C24.0368348,10.3269089 23.3737576,9.73004218 22.3950782,9.10292192 C21.2069449,8.34158725 20.0122908,8.0717051 19.0311991,8.01307858 L20.3973733,5.75268541 C20.3973733,5.75268541 21.3921472,5.27589206 23.5895511,6.74728516 C25.786955,8.21867827 25.5483838,9.0206059 25.5483838,9.0206059 L24.485342,10.837868 Z M22.2364419,14.6823459 L16.4458512,24.5813173 L10.9595844,28.7712364 L11.1321864,21.0823301 L16.8203836,11.6709666 C17.8031068,11.7245763 18.9545844,12.0103439 20.1097243,12.7939897 C21.1809198,13.5206877 21.8364974,14.1597629 22.2364419,14.6823459 Z M14.3206995,22.6174233 C12.7643141,21.6224748 12.0929289,21.6224748 12.0929289,21.6224748 L12.0929289,27.0092646 L15.8191435,24.1642095 C15.8191435,24.1642095 15.8770848,23.6123718 14.3206995,22.6174233 Z" id="Combined-Shape" fill="#FFFFFF"></path>
                <path d="M12.4905985,16.9027376 L11.7121374,18.0929614 C9.9214719,18.899942 8.58099425,20.0763447 7.62460998,21.1901192 C5.75196333,23.3709434 6.74710575,26.4450292 7.62460998,27.8640632 C8.50211421,29.2830972 10.2314749,31.0129805 8.27334504,29.2778731 C6.31521516,27.5427657 5.14905605,23.9235445 6.4977604,21.4798907 C7.34860642,19.9382829 9.59103028,17.9744438 12.4905985,16.9027376 Z M22.2336553,17.0265254 C26.0630442,18.0968432 29.4911763,19.9493959 31.7395736,22.35612 C34.7731117,25.6032725 34.9608509,26.6882285 31.5958015,27.4202308 C28.2307521,28.152233 24.729129,27.4222564 21.9593097,30.0539292 C19.1894905,32.6856021 16.4643299,33.6409367 13.7057587,32.0257987 C10.9471876,30.4106606 10.1368624,29.7541207 10.5446688,29.2778729 C10.9524752,28.8016251 11.30887,29.1707209 13.7057587,30.9569529 C16.1026475,32.7431849 18.353512,32.2714528 21.7664863,29.2778729 C25.1794607,26.2842931 28.6421577,27.3554315 30.7387878,26.7298287 C32.8354179,26.104226 33.9674884,25.9775528 31.0499584,23.0728468 C28.8080075,20.8407504 25.5360017,18.8978114 21.7295709,17.8534226 L22.2336553,17.0265254 Z" id="Combined-Shape" fill="#62A5BE"></path>
            </g>
        </g>
    </g>
</svg>