<?xml version="1.0" encoding="UTF-8" standalone="no"?>
<svg width="38px" height="38px" viewBox="0 0 38 38" version="1.1" xmlns="http://www.w3.org/2000/svg" xmlns:xlink="http://www.w3.org/1999/xlink">
    <!-- Generator: Sketch 43.1 (39012) - http://www.bohemiancoding.com/sketch -->
    <title>icon ._tool ._rectangle</title>
    <desc>Created with Sketch.</desc>
    <defs></defs>
    <g id="Symbols" stroke="none" stroke-width="1" fill="none" fill-rule="evenodd">
        <g id="icon-._tool-._rectangle">
            <g id="Group-30">
                <rect id="Rectangle-891-Copy-8" x="0" y="0" width="38" height="37.9408816"></rect>
                <g id="Group-13" transform="translate(6.500000, 5.970441)">
                    <path d="M4,2 L21,2 L21,3 L4,3 L4,2 Z M4,23 L21,23 L21,24 L4,24 L4,23 Z M2,5 L3,5 L3,22 L2,22 L2,5 Z M22,5 L23,5 L23,22 L22,22 L22,5 Z" id="Combined-Shape" fill="#FFFFFF"></path>
                    <path d="M0,0 L5,0 L5,5 L0,5 L0,0 Z M0,21 L5,21 L5,26 L0,26 L0,21 Z M20,21 L25,21 L25,26 L20,26 L20,21 Z M20,0 L25,0 L25,5 L20,5 L20,0 Z" id="Combined-Shape" fill="#62A5BE"></path>
                </g>
            </g>
        </g>
    </g>
</svg>