<?xml version="1.0" encoding="UTF-8" standalone="no"?>
<svg width="38px" height="38px" viewBox="0 0 38 38" version="1.1" xmlns="http://www.w3.org/2000/svg" xmlns:xlink="http://www.w3.org/1999/xlink">
    <!-- Generator: Sketch 43.1 (39012) - http://www.bohemiancoding.com/sketch -->
    <title>icon ._tool ._oval</title>
    <desc>Created with Sketch.</desc>
    <defs></defs>
    <g id="Symbols" stroke="none" stroke-width="1" fill="none" fill-rule="evenodd">
        <g id="icon-._tool-._oval">
            <g id="Group-30-Copy-2">
                <rect id="Rectangle-891-Copy-8" x="0" y="0" width="38" height="37.9408816"></rect>
                <g id="Group-40" transform="translate(5.500000, 7.970441)">
                    <path d="M13.5,20 C7.14872538,20 2,15.9705627 2,11 C2,6.02943725 7.14872538,2 13.5,2 C19.8512746,2 25,6.02943725 25,11 C25,15.9705627 19.8512746,20 13.5,20 Z M13.5,19 C19.2989899,19 24,15.418278 24,11 C24,6.581722 19.2989899,3 13.5,3 C7.70101013,3 3,6.581722 3,11 C3,15.418278 7.70101013,19 13.5,19 Z" id="Combined-Shape" fill="#FFFFFF"></path>
                    <path d="M0,8.5 L5,8.5 L5,13.5 L0,13.5 L0,8.5 Z M11,17 L16,17 L16,22 L11,22 L11,17 Z M22,8.5 L27,8.5 L27,13.5 L22,13.5 L22,8.5 Z M11,0 L16,0 L16,5 L11,5 L11,0 Z" id="Combined-Shape" fill="#62A5BE"></path>
                </g>
            </g>
        </g>
    </g>
</svg>