<?xml version="1.0" encoding="UTF-8" standalone="no"?>
<svg width="38px" height="38px" viewBox="0 0 38 38" version="1.1" xmlns="http://www.w3.org/2000/svg" xmlns:xlink="http://www.w3.org/1999/xlink">
    <!-- Generator: Sketch 43.1 (39012) - http://www.bohemiancoding.com/sketch -->
    <title>icon ._tool ._recover window</title>
    <desc>Created with Sketch.</desc>
    <defs></defs>
    <g id="Symbols" stroke="none" stroke-width="1" fill="none" fill-rule="evenodd">
        <g id="icon-._tool-._recover-window">
            <g id="Group-28">
                <rect id="Rectangle-891-Copy-14" x="0" y="0.024085278" width="38" height="37.9408816"></rect>
                <g id="Group" transform="translate(7.000000, 7.000000)">
                    <path d="M21.4878829,16 C21.8195373,15.0616632 22,14.0519063 22,13 C22,8.02943725 17.9705627,4 13,4 C8.02943725,4 4,8.02943725 4,13 C4,17.9705627 8.02943725,22 13,22 C13.3380091,22 13.6716661,21.9813667 14,21.9450712 L14,20.9381062 C13.6724058,20.9789567 13.3386603,21 13,21 C8.581722,21 5,17.418278 5,13 C5,8.581722 8.581722,5 13,5 C17.418278,5 21,8.581722 21,13 C21,14.0609004 20.7934929,15.0735686 20.418483,16 L21.4878829,16 Z" id="Combined-Shape" fill="#FFFFFF"></path>
                    <path d="M6,13 C6,16.7341192 8.6537327,19.7865 12,20 L12,6 C8.6537327,6.21349999 6,9.26588084 6,13 Z" id="Combined-Shape" fill="#FFFFFF"></path>
                    <rect id="Combined-Shape" fill="#FFFFFF" x="12.5" y="0" width="1" height="3"></rect>
                    <rect id="Combined-Shape" fill="#FFFFFF" x="12.5" y="23" width="1" height="3"></rect>
                    <path d="M12.5,0 L13.5,0 L13.5,3 L12.5,3 L12.5,0 Z M12.5,23 L13.5,23 L13.5,26 L12.5,26 L12.5,23 Z" id="Combined-Shape" fill="#FFFFFF" transform="translate(13.000000, 13.000000) rotate(-330.000000) translate(-13.000000, -13.000000) "></path>
                    <path d="M12.5,-5.32907052e-14 L13.5,-5.32907052e-14 L13.5,3 L12.5,3 L12.5,-5.32907052e-14 Z M12.5,23 L13.5,23 L13.5,26 L12.5,26 L12.5,23 Z" id="Combined-Shape" fill="#FFFFFF" transform="translate(13.000000, 13.000000) rotate(-300.000000) translate(-13.000000, -13.000000) "></path>
                    <path d="M12.5,0 L13.5,0 L13.5,3 L12.5,3 L12.5,0 Z M12.5,23 L13.5,23 L13.5,26 L12.5,26 L12.5,23 Z" id="Combined-Shape" fill="#FFFFFF" transform="translate(13.000000, 13.000000) rotate(-270.000000) translate(-13.000000, -13.000000) "></path>
                    <rect id="Combined-Shape" fill="#FFFFFF" transform="translate(3.040708, 7.250000) rotate(-240.000000) translate(-3.040708, -7.250000) " x="2.54070786" y="5.75" width="1" height="3"></rect>
                    <rect id="Combined-Shape" fill="#FFFFFF" transform="translate(7.250000, 3.040708) rotate(-210.000000) translate(-7.250000, -3.040708) " x="6.75" y="1.54070786" width="1" height="3"></rect>
                    <g id="icon_back" transform="translate(14.000000, 14.000000)" fill="#61A5BE">
                        <path d="M9.05,11.1761705 C9.0666424,11.1763704 9.08330926,11.1764706 9.1,11.1764706 C11.309139,11.1764706 13.1,9.42072451 13.1,7.25490196 C13.1,5.08907941 11.309139,3.33333333 9.1,3.33333333 C9.08330926,3.33333333 9.0666424,3.33343356 9.05,3.33363342 L9.05,4.25531022 C9.0666341,4.2550384 9.08330112,4.25490196 9.1,4.25490196 C10.7568542,4.25490196 12.1,5.59804771 12.1,7.25490196 C12.1,8.91175621 10.7568542,10.254902 9.1,10.254902 C9.08330112,10.254902 9.0666341,10.2547655 9.05,10.2544937 L9.05,11.1761705 Z" id="Combined-Shape"></path>
                        <path d="M4.7,10.25 L9.1000001,10.25 L9.1000001,11.17 L4.7,11.17 L4.7,10.25 Z M2.7,3.33333333 L9.2,3.33333333 L9.2,4.25333335 L2.7,4.25333335 L2.7,3.33333333 Z" id="Rectangle-90"></path>
                        <polygon id="Rectangle-91" points="3.60624458 7.23773432 6.1284311e-14 3.70220041 3.60624458 0.166666508"></polygon>
                    </g>
                </g>
            </g>
        </g>
    </g>
</svg>