<?xml version="1.0" encoding="UTF-8" standalone="no"?>
<svg width="38px" height="38px" viewBox="0 0 38 38" version="1.1" xmlns="http://www.w3.org/2000/svg" xmlns:xlink="http://www.w3.org/1999/xlink">
    <!-- Generator: Sketch 43.1 (39012) - http://www.bohemiancoding.com/sketch -->
    <title>icon ._tool ._zoom</title>
    <desc>Created with Sketch.</desc>
    <defs></defs>
    <g id="Symbols" stroke="none" stroke-width="1" fill="none" fill-rule="evenodd">
        <g id="icon-._tool-._zoom">
            <g id="Group-24">
                <rect id="Rectangle-891-Copy-10" x="0" y="0" width="38" height="37.9658427"></rect>
                <g id="icon-._tool-.zoom" transform="translate(9.000000, 7.000000)">
                    <path d="M17.6397236,15.2967703 L23.7367093,21.393756 C24.1191756,21.7762223 24.1272256,22.4139592 23.7388465,22.8023382 L22.8431662,23.6980185 C22.4600444,24.0811404 21.8241434,24.0854407 21.434584,23.6958813 L15.4597158,17.7210131 C13.8339959,19.0032047 11.7815031,19.7683341 9.55030475,19.7683341 C4.27581708,19.7683341 0,15.492517 0,10.2180294 C0,4.94354169 4.27581708,0.667724609 9.55030475,0.667724609 C14.8247924,0.667724609 19.1006095,4.94354169 19.1006095,10.2180294 C19.1006095,12.084379 18.5652512,13.825689 17.6397236,15.2967703 Z M9.51487712,18.6717615 C14.2033106,18.6717615 18.0040369,14.8710352 18.0040369,10.1826017 C18.0040369,5.49416824 14.2033106,1.69344195 9.51487712,1.69344195 C4.82644363,1.69344195 1.02571734,5.49416824 1.02571734,10.1826017 C1.02571734,14.8710352 4.82644363,18.6717615 9.51487712,18.6717615 Z" id="Oval-5" fill="#EEEEEE"></path>
                    <path d="M9,7 L6,7 L6,9 L9,9 L9,12 L11,12 L11,9 L14,9 L14,7 L11,7 L11,4 L9,4 L9,7 Z M6,13 L14,13 L14,15 L6,15 L6,13 Z" id="Combined-Shape" fill="#61A5BE"></path>
                </g>
            </g>
        </g>
    </g>
</svg>