<?xml version="1.0" encoding="UTF-8" standalone="no"?>
<svg width="38px" height="38px" viewBox="0 0 38 38" version="1.1" xmlns="http://www.w3.org/2000/svg" xmlns:xlink="http://www.w3.org/1999/xlink">
    <!-- Generator: Sketch 43.1 (39012) - http://www.bohemiancoding.com/sketch -->
    <title>icon ._tool ._delete_label</title>
    <desc>Created with Sketch.</desc>
    <defs></defs>
    <g id="Symbols" stroke="none" stroke-width="1" fill="none" fill-rule="evenodd">
        <g id="icon-._tool-._delete_label">
            <g id="Group-14">
                <rect id="Rectangle-891-Copy-7" x="0" y="0" width="38" height="37.9408816"></rect>
                <g id="icon-._tool-._delete_roi" transform="translate(5.000000, 6.989110)">
                    <path d="M5.80740741,13.3224512 L5.80740741,17.1880329 L4.83950617,17.1880329 L4.83950617,20.0872192 L7.74320988,20.0872192 L7.74320988,19.1208238 L13.5506173,19.1208238 L13.5506173,18.1544283 L7.74320988,18.1544283 L7.74320988,17.1880329 L6.77530864,17.1880329 L6.77530864,13.3224512 L5.80740741,13.3224512 Z M5.80740741,6.55768324 L5.80740741,3.65849696 L4.83950617,3.65849696 L4.83950617,0.759310691 L7.74320988,0.759310691 L7.74320988,1.72570612 L21.2938272,1.72570612 L21.2938272,0.759310691 L24.1975309,0.759310691 L24.1975309,3.65849696 L23.2296296,3.65849696 L23.2296296,8.49047409 L22.2617284,8.49047409 L22.2617284,3.65849696 L21.2938272,3.65849696 L21.2938272,2.69210154 L7.74320988,2.69210154 L7.74320988,3.65849696 L6.77530864,3.65849696 L6.77530864,6.55768324 L5.80740741,6.55768324 Z" id="Combined-Shape" fill="#FFFFFF"></path>
                    <path d="M16.454321,8.82920838 C14.9277477,7.18751669 13.4952242,5.59128781 11.6148148,5.59128781 C7.74374248,5.59128781 5.78826447,12.3560558 0.967901235,12.3560558 L0.967901235,13.3224512 C5.82314285,13.3224512 8.73012251,6.55768324 11.6148148,6.55768324 C13.1255016,6.55768324 14.6510444,8.41293467 16.454321,10.1802814 L16.454321,8.82920838 Z" id="Combined-Shape" fill="#FFFFFF"></path>
                    <path d="M18.3901235,10.4232649 L23.2296296,10.4232649 L23.2296296,12.3560558 L26.1333333,12.3560558 L27.1012346,14.2888466 L14.5185185,14.2888466 L15.4864198,12.3560558 L18.3901235,12.3560558 L18.3901235,10.4232649 Z M19.3580247,11.3896604 L19.3580247,12.3560558 L22.2617284,12.3560558 L22.2617284,11.3896604 L19.3580247,11.3896604 Z M15.5579357,15.2619509 L26.1398551,15.2547075 L24.1955938,24.8977424 L17.4111902,24.8936563 L15.5579357,15.2619509 Z M18.3901235,16.2216375 L18.3901235,23.9528009 L19.3580247,23.9528009 L19.3580247,16.2216375 L18.3901235,16.2216375 Z M20.3259259,16.2216375 L20.3259259,23.9528009 L21.2938272,23.9528009 L21.2938272,16.2216375 L20.3259259,16.2216375 Z M22.2617284,16.2216375 L22.2617284,23.9528009 L23.2296296,23.9528009 L23.2296296,16.2216375 L22.2617284,16.2216375 Z" id="Rectangle-537" fill="#62A5BE"></path>
                </g>
            </g>
        </g>
    </g>
</svg>