<?xml version="1.0" encoding="UTF-8" standalone="no"?>
<svg width="38px" height="38px" viewBox="0 0 38 38" version="1.1" xmlns="http://www.w3.org/2000/svg" xmlns:xlink="http://www.w3.org/1999/xlink">
    <!-- Generator: Sketch 43.1 (39012) - http://www.bohemiancoding.com/sketch -->
    <title>icon ._tool ._circle</title>
    <desc>Created with Sketch.</desc>
    <defs></defs>
    <g id="Symbols" stroke="none" stroke-width="1" fill="none" fill-rule="evenodd">
        <g id="icon-._tool-._circle">
            <g id="Group-30-Copy">
                <rect id="Rectangle-891-Copy-8" x="0" y="0" width="38" height="37.9408816"></rect>
                <g id="Group-16" transform="translate(5.500000, 7.470441)">
                    <path d="M13.5,23 C7.14872538,23 2,17.8512746 2,11.5 C2,5.14872538 7.14872538,0 13.5,0 C19.8512746,0 25,5.14872538 25,11.5 C25,17.8512746 19.8512746,23 13.5,23 Z M13.5,22 C19.2989899,22 24,17.2989899 24,11.5 C24,5.70101013 19.2989899,1 13.5,1 C7.70101013,1 3,5.70101013 3,11.5 C3,17.2989899 7.70101013,22 13.5,22 Z" id="Combined-Shape" fill="#FFFFFF"></path>
                    <path d="M0,9 L5,9 L5,14 L0,14 L0,9 Z M22,9 L27,9 L27,14 L22,14 L22,9 Z" id="Combined-Shape" fill="#62A5BE"></path>
                </g>
            </g>
        </g>
    </g>
</svg>