<?xml version="1.0" encoding="UTF-8" standalone="no"?>
<svg width="38px" height="38px" viewBox="0 0 38 38" version="1.1" xmlns="http://www.w3.org/2000/svg" xmlns:xlink="http://www.w3.org/1999/xlink">
    <!-- Generator: Sketch 43.1 (39012) - http://www.bohemiancoding.com/sketch -->
    <title>icon ._tool ._text_with_arrow</title>
    <desc>Created with Sketch.</desc>
    <defs></defs>
    <g id="Symbols" stroke="none" stroke-width="1" fill="none" fill-rule="evenodd">
        <g id="icon-._tool-._text_with_arrow">
            <g>
                <rect id="bg" fill-opacity="0" fill="#FFFFFF" x="0" y="0" width="38" height="38"></rect>
                <path d="M26,20.4947962 L29,23.4947962 L32.5,12.9947962 L22,16.4947962 L25.0104076,19.5052038 L13.5,31.0156115 L14.4895924,32.0052038 L26,20.4947962 Z" id="Combined-Shape" fill="#FFFFFF"></path>
                <path d="M5.76782524,5.99479618 L16.2021087,5.99479618 C16.2021087,5.99479618 16.1889747,8.72490997 16.4706421,9.54906037 C16.230843,9.59978971 16.2397952,9.61921582 16.0195099,9.6740384 C15.8316972,9.33312691 15.2240595,7.61985911 15.0954179,7.35246488 C14.9663649,7.08421565 14.8950421,7.08421561 14.556574,7.08421565 C14.2181059,7.08421569 12.2963042,7.08421566 12.2963042,7.08421566 C12.0213647,7.08421565 11.7984821,7.30381931 11.7984821,7.57635191 C11.7984821,7.57635191 11.7984822,16.7133346 11.7984823,17.2567318 C11.7984823,17.800129 12.339472,18.0749772 13.4489495,18.3384585 C13.4489379,18.5015133 13.4489493,18.6295811 13.4489493,18.6295811 L8.52603937,18.6162502 C8.52603937,18.6162502 8.52603931,18.5105046 8.52603931,18.3384585 C9.59385233,18.0764534 10.1554121,17.8256368 10.1574728,17.2567318 C10.1595336,16.6878267 10.1575728,7.56860926 10.1575728,7.56860926 C10.1575177,7.29729887 9.94135594,7.07799117 9.65601416,7.0788126 C9.65601416,7.0788126 7.8468504,7.08421567 7.40980791,7.08421563 C6.97276542,7.08421559 6.99773864,7.08421565 6.86671552,7.35246493 C6.73569239,7.6207142 6.29902862,9.06290424 5.94442636,9.6740384 C5.70658638,9.61615815 5.76725466,9.6262495 5.5,9.54906037 C5.76725466,8.71813264 5.76782524,5.99479618 5.76782524,5.99479618 Z" id="Path-461" fill="#61A5BE"></path>
            </g>
        </g>
    </g>
</svg>