<?xml version="1.0" encoding="UTF-8" standalone="no"?>
<svg width="38px" height="38px" viewBox="0 0 38 38" version="1.1" xmlns="http://www.w3.org/2000/svg" xmlns:xlink="http://www.w3.org/1999/xlink">
    <!-- Generator: Sketch 43.1 (39012) - http://www.bohemiancoding.com/sketch -->
    <title>icon ._tool ._平移</title>
    <desc>Created with Sketch.</desc>
    <defs></defs>
    <g id="Symbols" stroke="none" stroke-width="1" fill="none" fill-rule="evenodd">
        <g id="icon-._tool-._平移">
            <g>
                <rect id="Rectangle-5" fill-opacity="0" fill="#FFFFFF" x="0" y="0" width="38" height="38"></rect>
                <g id="Group-2" transform="translate(8.000000, 8.000000)">
                    <path d="M12,10 L12,9 L10,9 L10,10 L9,10 L9,12 L10,12 L10,13 L12,13 L12,12 L13,12 L13,10 L12,10 Z" id="Combined-Shape" fill="#5FA5BF"></path>
                    <path d="M11.5,0 L15,4 L7,4 L10.5,0 L11.5,0 Z M10,4 L12,4 L12,9 L10,9 L10,4 Z M11.5,22 L10.5,22 L7,18 L15,18 L11.5,22 Z M10,18 L10,13 L12,13 L12,18 L10,18 Z" id="Combined-Shape" fill="#FFFFFF"></path>
                    <path d="M11.5,0 L15,4 L7,4 L10.5,0 L11.5,0 Z M10,4 L12,4 L12,9 L10,9 L10,4 Z M11.5,22 L10.5,22 L7,18 L15,18 L11.5,22 Z M10,18 L10,13 L12,13 L12,18 L10,18 Z" id="Combined-Shape" fill="#FFFFFF" transform="translate(11.000000, 11.000000) rotate(-270.000000) translate(-11.000000, -11.000000) "></path>
                </g>
            </g>
        </g>
    </g>
</svg>