<?xml version="1.0" encoding="UTF-8" standalone="no"?>
<svg width="38px" height="38px" viewBox="0 0 38 38" version="1.1" xmlns="http://www.w3.org/2000/svg" xmlns:xlink="http://www.w3.org/1999/xlink">
    <!-- Generator: Sketch 43.1 (39012) - http://www.bohemiancoding.com/sketch -->
    <title>icon ._tool ._for report</title>
    <desc>Created with Sketch.</desc>
    <defs></defs>
    <g id="Symbols" stroke="none" stroke-width="1" fill="none" fill-rule="evenodd">
        <g id="icon-._tool-._for-report">
            <g id="Group-16">
                <rect id="Rectangle-38" fill-opacity="0" fill="#FFFFFF" x="0" y="0" width="38" height="38"></rect>
                <g id="Group-9" transform="translate(6.000000, 6.000000)">
                    <rect id="Rectangle-36" stroke="#FFFFFF" x="0.5" y="11.5" width="12" height="12"></rect>
                    <path d="M5.5,5.1 C5.5,5.8 5.5,6.8 5.5,7.5 C3,7.5 2.68944702,8.75 2,10.5 C2,8.75 2,5.1 5.5,5.1 Z M5.5,3 L9,6.5 L5.5,10 L5.5,3 Z" id="Combined-Shape" fill="#FFFFFF"></path>
                    <rect id="Rectangle-36" fill="#62A5BE" x="2" y="13" width="9" height="9"></rect>
                    <path d="M24.5,22 L14,22 L14,21 L24,21 L24,3 L25,3 L25,22 L24.5,22 Z M15,3 L20,3 L20,4 L15,4 L15,3 Z M16,0 L19,0 L19,1 L16,1 L16,0 Z M14,1 L21,1 L21,2 L14,2 L14,1 Z M13,6 L22,6 L22,7 L13,7 L13,6 Z M10,2 L25,2 L25,3 L10,3 L10,2 Z M10,3 L11,3 L11,10 L10,10 L10,3 Z M13,9 L22,9 L22,10 L13,10 L13,9 Z M15,12 L22,12 L22,13 L15,13 L15,12 Z M15,15 L22,15 L22,16 L15,16 L15,15 Z M15,18 L22,18 L22,19 L15,19 L15,18 Z" id="Combined-Shape" fill="#FFFFFF"></path>
                </g>
            </g>
        </g>
    </g>
</svg>