<?xml version="1.0" encoding="UTF-8" standalone="no"?>
<svg width="38px" height="38px" viewBox="0 0 38 38" version="1.1" xmlns="http://www.w3.org/2000/svg" xmlns:xlink="http://www.w3.org/1999/xlink">
    <!-- Generator: Sketch 43.1 (39012) - http://www.bohemiancoding.com/sketch -->
    <title>icon ._tool ._remove_head</title>
    <desc>Created with Sketch.</desc>
    <defs></defs>
    <g id="Symbols" stroke="none" stroke-width="1" fill="none" fill-rule="evenodd">
        <g id="icon-._tool-._remove_head">
            <path d="M20.4077679,21.4392739 C20.4077679,20.3287101 20.6124108,20.2251353 21.8669699,18.0454749 C23.121529,15.8658145 23.5514035,12.0643887 21.2713252,9.10086774 C18.9912468,6.13734675 13.4271006,6.68372025 11.1719281,8.43808965 C8.9167555,10.192459 9.16744862,11.2679025 8.34770402,11.6307538 C7.54201825,11.8891462 8.98483107,12.2338864 9.36588188,13.2418855 C9.74693269,14.2498846 9.00782927,15.2035819 9.36588188,15.5581591 C9.72393448,15.9127362 9.61763273,15.5944932 9.36588188,16.7397206 C9.11413103,17.884948 8.34291498,18.1243376 8.62067358,18.8678414 C8.89843219,19.6113451 9.79783743,19.329472 10.2733207,20.7308095 C10.748804,22.1321469 11.9245393,22.8138746 12.5606159,22.9250966 C13.1966924,23.0363186 13.5133163,24.2389935 11.5076639,24.10038 C10.3797506,24.0224283 7.26246179,26.0498684 7,28.6219564 L22.7888721,28.6219564 L22.7888721,27.4900274 L9.28101647,27.4900274 C9.28101647,26.3275783 11.3427643,24.9374802 12.4622272,24.9350278 C14.4745032,24.9306196 14.3992973,22.5409944 13.5524372,22.1065249 C12.705577,21.6720555 11.6386695,21.3601934 11.253369,20.2659817 C10.8680685,19.1717699 9.46399457,18.6630605 10.0563275,18.0454749 C10.6486604,17.4278894 10.3451847,16.8426102 10.7532539,16.4113146 C11.1613231,15.9800189 11.7382974,15.8134762 10.9356612,15.361896 C10.0563275,14.8671642 10.5961289,14.6966591 10.625341,14.1396902 C10.6587435,13.502827 10.2733207,12.9140983 10.9356612,12.6437968 C11.326985,12.4840973 11.0875513,12.3448311 10.9356612,12.2981471 C10.2733207,12.0945741 9.281837,12.4188103 10.625341,10.6600454 C11.5076639,9.50500718 12.3834335,8.80259704 13.5524372,8.43808971 C14.7214409,8.07358239 19.1090573,7.7633941 20.5770158,10.0003031 C22.0449742,12.237212 22.2331547,15.3074407 20.8064973,17.5460099 C19.37984,19.7845791 19.1605882,20.1045293 19.1605878,21.4392742 C19.7407811,21.4392739 19.7787923,21.396312 20.4077679,21.4392739 Z" id="Path-667" fill="#EEEEEE"></path>
            <polygon id="Path-668" fill="#65A5BD" points="21.6956522 22.826087 21.6956522 25.0869565 27.3478261 25.0869565 27.3478261 27.3478261 33 23.9565217 27.3478261 20.5652174 27.3478261 22.826087"></polygon>
        </g>
    </g>
</svg>