<?xml version="1.0" encoding="UTF-8"?>
<svg width="155px" height="30px" viewBox="0 0 155 30" version="1.1" xmlns="http://www.w3.org/2000/svg" xmlns:xlink="http://www.w3.org/1999/xlink">
    <!-- Generator: Sketch 47.1 (45422) - http://www.bohemiancoding.com/sketch -->
    <title>Combined Shape</title>
    <desc>Created with Sketch.</desc>
    <defs></defs>
    <g id="Page-1" stroke="none" stroke-width="1" fill="none" fill-rule="evenodd">
        <g id="Header.CN" transform="translate(-1135.000000, -25.000000)" fill-rule="nonzero" fill="#0D485A">
            <path d="M1279.1312,25 L1290,25 L1290,34.2045455 L1279.1312,34.2045455 L1279.1312,25 Z M1279.1312,52.5795455 L1279.1312,36.9318182 L1290,36.9318182 L1290,42.9318182 C1290,45.4204545 1288.80375,47.7045455 1286.88975,49.4090909 C1284.94157,51.1477273 1282.20728,52.3068182 1279.1312,52.5795455 Z M1265.56229,42.8977273 L1265.56229,25 L1276.46527,25 L1276.46527,52.5454545 C1273.35502,52.3068182 1270.62073,51.1136364 1268.67255,49.375 C1266.72437,47.6363636 1265.56229,45.3863636 1265.56229,42.8977273 Z M1171.67365,26.9772727 L1171.67365,25 L1183.94377,25 L1183.94377,26.9772727 L1179.7398,26.9772727 L1179.7398,37.4772727 L1175.84344,37.4772727 L1175.84344,26.9772727 L1171.67365,26.9772727 Z M1144.50165,33.7272727 L1144.50165,25 L1148.36384,25 L1148.36384,33.4886364 C1148.36384,34.7159091 1148.36384,37.4772727 1143.71555,37.4772727 L1139.64829,37.4772727 C1135,37.4772727 1135,34.6818182 1135,33.4886364 L1135,25 L1138.828,25 L1138.828,33.7272727 C1138.828,34.6136364 1138.9989,35.4659091 1140.05843,35.4659091 L1143.23705,35.4659091 C1144.33076,35.4659091 1144.50165,34.6136364 1144.50165,33.7272727 Z M1166.17089,25 L1169.93054,25 L1169.93054,37.4772727 L1166.17089,37.4772727 L1166.17089,25 Z M1208.07387,25 C1212.72216,25 1212.72216,27.7613636 1212.72216,28.9886364 L1212.72216,33.4886364 C1212.72216,34.7159091 1212.68798,37.4772727 1208.07387,37.4772727 L1199.32415,37.4772727 L1199.32415,25 L1208.07387,25 Z M1208.85998,33.7272727 L1208.85998,28.7159091 C1208.85998,27.7954545 1208.68908,26.9431818 1207.62955,26.9431818 L1203.22051,26.9431818 L1203.22051,35.4659091 L1207.62955,35.4659091 C1208.68908,35.4659091 1208.85998,34.6136364 1208.85998,33.7272727 Z M1197,35.4659091 L1197,37.4772727 L1185.89195,37.4772727 L1185.89195,25 L1196.65821,25 L1196.65821,26.9772727 L1189.78831,26.9772727 L1189.78831,30.2159091 L1196.24807,30.2159091 L1196.24807,32.2272727 L1189.78831,32.2272727 L1189.78831,35.4659091 L1197,35.4659091 Z M1163.6075,25 L1163.57332,25 L1163.57332,37.4772727 L1158.95921,37.4772727 L1153.79824,29.1590909 L1153.79824,37.4772727 L1150.8247,37.4772727 L1150.8247,25 L1155.57552,25 L1160.63396,33.0795455 L1160.63396,25 L1163.6075,25 Z M1199.3925,46.4772727 C1199.3925,45.2840909 1199.3925,42.4886364 1204.04079,42.4204545 L1212.51709,42.4204545 L1212.51709,44.3977273 L1204.51929,44.3977273 C1203.42558,44.3977273 1203.28886,45.2840909 1203.28886,46.1704545 L1203.28886,51.2159091 C1203.28886,52.1363636 1203.45976,52.9886364 1204.51929,52.9886364 L1208.65491,52.9886364 L1208.65491,49.4772727 L1206.09151,49.4772727 L1206.09151,47.5 L1212.48291,47.5 L1212.48291,55 L1204.04079,55 C1199.3925,55 1199.3925,52.2045455 1199.3925,51.0113636 L1199.3925,46.4772727 Z M1236.9548,46.4772727 C1236.9548,45.2840909 1236.9548,42.4886364 1241.60309,42.4204545 L1250.0452,42.4204545 L1250.0452,44.3977273 L1242.04741,44.3977273 C1240.95369,44.3977273 1240.81698,45.2840909 1240.81698,46.1704545 L1240.81698,51.2159091 C1240.81698,52.1363636 1240.98787,52.9886364 1242.04741,52.9886364 L1246.18302,52.9886364 L1246.18302,49.4772727 L1243.61963,49.4772727 L1243.61963,47.5 L1250.0452,47.5 L1250.0452,55 L1241.60309,55 C1236.9548,55 1236.9548,52.2045455 1236.9548,51.0113636 L1236.9548,46.4772727 Z M1188.86549,42.5227273 L1194.06064,42.5227273 L1198.81147,55 L1194.16318,55 L1190.54024,45.7272727 L1187.05402,55 L1184.11466,55 L1188.86549,42.5227273 Z M1174.33958,50.4659091 L1178.06505,42.5227273 L1182.67916,42.5227273 L1182.67916,55 L1178.88534,55 L1178.88534,46.6818182 L1174.98897,55 L1172.35722,55 L1168.76847,46.6818182 L1168.76847,55 L1166.20507,55 L1166.20507,42.5227273 L1170.88754,42.5227273 L1174.33958,50.4659091 Z M1231.65711,50.6022727 L1231.62293,50.6022727 L1231.62293,42.5227273 L1234.63065,42.5227273 L1234.63065,55 L1230.01654,55 L1224.85557,46.6818182 L1224.85557,55 L1221.88203,55 L1221.88203,42.5227273 L1226.59868,42.5227273 L1231.65711,50.6022727 Z M1159.88203,42.5227273 L1163.64168,42.5227273 L1163.64168,55 L1159.88203,55 L1159.88203,42.5227273 Z M1215.2172,42.5227273 L1218.94267,42.5227273 L1218.94267,55 L1215.2172,55 L1215.2172,42.5227273 Z M1226.59868,37.4772727 L1224.44542,37.4772727 L1226.83793,32.2613636 L1224.51378,32.2613636 L1224.51378,31.1363636 L1227.55568,31.1363636 L1227.55568,27.8295455 L1224.58214,27.8295455 L1224.58214,26.7386364 L1225.40243,26.7386364 L1224.92393,25 L1226.90628,25 L1227.41896,26.7386364 L1229.81147,26.7386364 L1230.25579,25 L1232.40904,25 L1231.93054,26.7386364 L1232.54576,26.7386364 L1232.54576,27.8295455 L1229.53804,27.8295455 L1229.53804,31.1363636 L1232.61411,31.1363636 L1232.61411,32.2613636 L1230.18743,32.2613636 L1232.54576,37.4772727 L1230.3925,37.4772727 L1228.4785,33.4545455 L1226.59868,37.4772727 Z M1217.88313,35.7727273 L1217.91731,35.7727273 L1217.91731,26.0909091 L1217.40463,26.0909091 L1217.40463,25 L1224.27453,25 L1224.27453,26.125 L1223.83021,26.125 L1223.83021,37.4772727 L1221.88203,37.4772727 L1221.88203,36.4204545 L1217.43881,36.9659091 L1217.43881,35.8068182 L1217.88313,35.7727273 Z M1219.83131,26.0909091 L1219.83131,28.5795455 L1221.88203,28.5795455 L1221.88203,26.0909091 L1219.83131,26.0909091 Z M1219.83131,29.5340909 L1219.83131,31.8863636 L1221.88203,31.8863636 L1221.88203,29.5340909 L1219.83131,29.5340909 Z M1219.83131,32.8409091 L1219.83131,35.5 L1221.88203,35.2613636 L1221.88203,32.8409091 L1219.83131,32.8409091 Z M1237.70673,35.3295455 L1237.02315,37.4772727 L1234.90408,37.4772727 L1235.55347,35.3295455 L1237.70673,35.3295455 Z M1244.71334,37.4772727 L1242.62845,37.4772727 L1241.91069,35.3295455 L1244.06395,35.3295455 L1244.71334,37.4772727 Z M1245.46527,28.8863636 L1245.46527,26.7386364 L1250.0452,25 L1250.0452,27.1477273 L1245.46527,28.8863636 Z M1245.46527,33.2159091 L1245.46527,31.0340909 L1250.0452,29.2613636 L1250.0452,31.4772727 L1245.46527,33.2159091 Z M1244.71334,30.2159091 L1244.71334,31.2727273 L1234.8699,31.2727273 L1234.8699,30.2159091 L1238.76626,30.2159091 L1238.76626,29.3636364 L1235.07497,29.3636364 L1235.07497,25.0340909 L1244.54245,25.0340909 L1244.54245,29.3636364 L1240.81698,29.3636364 L1240.81698,30.2159091 L1244.71334,30.2159091 Z M1237.33076,25.9204545 L1237.33076,26.7386364 L1242.25248,26.7386364 L1242.25248,25.9204545 L1237.33076,25.9204545 Z M1237.36494,28.4772727 L1242.28666,28.4772727 L1242.28666,27.625 L1237.36494,27.625 L1237.36494,28.4772727 Z M1245.46527,37.4772727 L1245.46527,35.3636364 L1250.0452,33.625 L1250.0452,35.7727273 L1245.46527,37.4772727 Z M1240.81698,37.4772727 L1238.76626,37.4772727 L1238.76626,34.8863636 L1235.07497,34.8863636 L1235.07497,31.9204545 L1244.54245,31.9204545 L1244.54245,34.8863636 L1240.81698,34.8863636 L1240.81698,37.4772727 Z M1237.36494,33.8636364 L1242.28666,33.8636364 L1242.28666,32.8409091 L1237.36494,32.8409091 L1237.36494,33.8636364 Z" id="Combined-Shape"></path>
        </g>
    </g>
</svg>