<?xml version="1.0" standalone="no"?><!DOCTYPE svg PUBLIC "-//W3C//DTD SVG 1.1//EN" "http://www.w3.org/Graphics/SVG/1.1/DTD/svg11.dtd"><svg t="1521167679248" class="icon" style="" viewBox="0 0 1024 1024" version="1.1" xmlns="http://www.w3.org/2000/svg" p-id="4378" xmlns:xlink="http://www.w3.org/1999/xlink" width="32" height="32"><defs><style type="text/css"></style></defs><path d="M255.999927 877.714286l512 0 0-146.285714-512 0 0 146.285714zM255.999927 512l512 0 0-219.428571-91.428571 0q-22.820571 0-38.838857-16.018286t-16.018286-38.838857l0-91.428571-365.714286 0 0 365.714286zM914.285641 548.571429q0-14.848-10.825143-25.746286t-25.746286-10.825143-25.746286 10.825143-10.825143 25.746286 10.825143 25.746286 25.746286 10.825143 25.746286-10.825143 10.825143-25.746286zM987.428498 548.571429l0 237.714286q0 7.460571-5.412571 12.873143t-12.873143 5.412571l-128 0 0 91.428571q0 22.820571-16.018286 38.838857t-38.838857 16.018286l-548.571429 0q-22.820571 0-38.838857-16.018286t-16.018286-38.838857l0-91.428571-128 0q-7.460571 0-12.873143-5.412571t-5.412571-12.873143l0-237.714286q0-45.129143 32.256-77.458286t77.458286-32.256l36.571429 0 0-310.857143q0-22.820571 16.018286-38.838857t38.838857-16.018286l384 0q22.820571 0 50.322286 11.410286t43.446857 27.428571l86.820571 86.820571q16.018286 16.018286 27.428571 43.446857t11.410286 50.322286l0 146.285714 36.571429 0q45.129143 0 77.458286 32.256t32.256 77.458286z" p-id="4379"></path></svg>
